<svg width="126" height="20" viewBox="0 0 126 20" fill="none" xmlns="http://www.w3.org/2000/svg">
<path d="M6.24869 16.0874C10.2594 16.0874 12.4974 13.6612 12.4974 10.0546V0.502732H9.37304V10.0546C9.37304 12 8.24295 13.224 6.24869 13.224C4.25443 13.224 3.12434 12 3.12434 10.0546V0.502732H0V10.0546C0 13.6612 2.23801 16.0874 6.24869 16.0874Z" fill="white"/>
<path d="M15.1206 15.8033H18.0012V14.6229C18.3114 14.9945 19.4636 16.0874 21.4357 16.0874C24.7595 16.0874 27.1083 13.6175 27.1083 10.0984C27.1083 6.55738 24.9368 4.08743 21.613 4.08743C19.6187 4.08743 18.4665 5.18033 18.1784 5.57377V0H15.1206V15.8033ZM18.0898 10.1202C18.0898 7.97814 19.375 6.7541 21.059 6.7541C22.8317 6.7541 24.0283 8.13115 24.0283 10.1202C24.0283 12.153 22.7874 13.4208 21.059 13.4208C19.1977 13.4208 18.0898 11.9344 18.0898 10.1202Z" fill="white"/>
<path d="M28.241 10.1202C28.241 13.5519 30.6119 16.0874 34.3346 16.0874C37.2152 16.0874 38.7663 14.3825 39.2094 13.5738L37.193 12.0656C36.8606 12.5464 35.9521 13.4645 34.3789 13.4645C32.6727 13.4645 31.4318 12.3716 31.3653 10.8415H39.5196C39.5418 10.623 39.5418 10.4044 39.5418 10.1858C39.5418 6.44809 37.5032 4.08743 33.9135 4.08743C30.6119 4.08743 28.241 6.66667 28.241 10.1202ZM31.454 8.87432C31.5869 7.56284 32.5176 6.55738 33.9579 6.55738C35.3538 6.55738 36.3731 7.47541 36.4396 8.87432H31.454Z" fill="white"/>
<path d="M47.4212 4.08743C45.8923 4.08743 44.74 4.89617 44.2304 6.03279V4.37159H41.239V15.8033H44.2969V10.8197C44.2969 8.54645 45.1389 7.14754 47.4212 7.14754V4.08743Z" fill="white"/>
<path d="M52.7692 16.0874C55.2731 16.0874 57.2231 14.6885 57.2231 12.459C57.2231 8.37159 51.7277 9.2459 51.7277 7.43169C51.7277 6.86339 52.2152 6.51366 52.9243 6.51366C54.0101 6.51366 54.6527 7.1694 55.0072 7.60656L57.0236 6.12022C56.4697 5.22404 55.2509 4.08743 53.0573 4.08743C50.6863 4.08743 48.8471 5.35519 48.8471 7.47541C48.8471 11.541 54.3203 10.8634 54.3203 12.612C54.3203 13.2678 53.7663 13.6393 52.9021 13.6393C51.5948 13.6393 50.8192 13.0492 50.2431 12.3934L48.4483 13.9672C49.0687 14.9508 50.4869 16.0874 52.7692 16.0874Z" fill="white"/>
<path d="M62.7753 16.0874C64.2821 16.0874 65.39 15.2568 65.8775 14.4699V15.8033H68.8689V4.37159H65.811V11.235C65.811 12.459 65.0133 13.377 63.7503 13.377C62.7088 13.377 61.8225 12.5902 61.8225 11.3224V4.37159H58.7646V10.9727C58.7646 13.3989 59.4737 16.0874 62.7753 16.0874Z" fill="white"/>
<path d="M72.0079 18.9508C73.0494 19.5191 74.667 20 76.2624 20C79.6748 20 82.4889 18.6229 82.4889 14.3607V4.37159H79.6083V5.57377C79.2759 5.13661 78.1015 4.08743 76.1516 4.08743C72.85 4.08743 70.5012 6.57923 70.5012 10.0984C70.5012 13.6175 72.6949 16.0874 76.0408 16.0874C78.0572 16.0874 79.1873 14.9508 79.431 14.6229V15.1475C79.431 16.918 77.9021 17.4208 76.2402 17.4208C74.6448 17.4208 73.3153 16.8306 72.9386 16.6339L72.0079 18.9508ZM79.5197 10.0765C79.5197 12.1093 78.3231 13.4208 76.5504 13.4208C74.8221 13.4208 73.5812 12.0874 73.5812 10.0765C73.5812 8.06557 74.7999 6.7541 76.5283 6.7541C78.3231 6.7541 79.5197 8.13115 79.5197 10.0765Z" fill="white"/>
<path d="M85.6406 18.9508C86.6821 19.5191 88.2996 20 89.895 20C93.3074 20 96.1216 18.6229 96.1216 14.3607V4.37159H93.2409V5.57377C92.9086 5.13661 91.7342 4.08743 89.7842 4.08743C86.4826 4.08743 84.1338 6.57923 84.1338 10.0984C84.1338 13.6175 86.3275 16.0874 89.6734 16.0874C91.6899 16.0874 92.8199 14.9508 93.0637 14.6229V15.1475C93.0637 16.918 91.5348 17.4208 89.8729 17.4208C88.2775 17.4208 86.948 16.8306 86.5713 16.6339L85.6406 18.9508ZM93.1523 10.0765C93.1523 12.1093 91.9558 13.4208 90.1831 13.4208C88.4547 13.4208 87.2139 12.0874 87.2139 10.0765C87.2139 8.06557 88.4326 6.7541 90.1609 6.7541C91.9558 6.7541 93.1523 8.13115 93.1523 10.0765Z" fill="white"/>
<path d="M97.8108 10.1202C97.8108 13.5519 100.182 16.0874 103.904 16.0874C106.785 16.0874 108.336 14.3825 108.779 13.5738L106.763 12.0656C106.43 12.5464 105.522 13.4645 103.949 13.4645C102.242 13.4645 101.002 12.3716 100.935 10.8415H109.089C109.112 10.623 109.112 10.4044 109.112 10.1858C109.112 6.44809 107.073 4.08743 103.483 4.08743C100.182 4.08743 97.8108 6.66667 97.8108 10.1202ZM101.024 8.87432C101.157 7.56284 102.087 6.55738 103.528 6.55738C104.924 6.55738 105.943 7.47541 106.009 8.87432H101.024Z" fill="white"/>
<path d="M114.354 16.0874C116.858 16.0874 118.808 14.6885 118.808 12.459C118.808 8.37159 113.313 9.2459 113.313 7.43169C113.313 6.86339 113.8 6.51366 114.509 6.51366C115.595 6.51366 116.238 7.1694 116.592 7.60656L118.609 6.12022C118.055 5.22404 116.836 4.08743 114.642 4.08743C112.271 4.08743 110.432 5.35519 110.432 7.47541C110.432 11.541 115.905 10.8634 115.905 12.612C115.905 13.2678 115.351 13.6393 114.487 13.6393C113.18 13.6393 112.404 13.0492 111.828 12.3934L110.033 13.9672C110.654 14.9508 112.072 16.0874 114.354 16.0874Z" fill="white"/>
<path d="M120.726 4.37159H119.485V6.81967H120.704V11.3224C120.704 14.4262 121.923 15.9563 124.693 15.9563C125.535 15.9563 126 15.847 126 15.847V13.2678C125.756 13.2896 125.645 13.2896 125.446 13.2896C124.272 13.2896 123.74 12.9399 123.74 11.235V6.81967H125.911V4.37159H123.74V1.96721H120.726V4.37159Z" fill="white"/>
</svg>
