<?xml version="1.0" encoding="UTF-8"?>
<svg width="20px" height="22px" viewBox="0 0 20 22" version="1.1" xmlns="http://www.w3.org/2000/svg" xmlns:xlink="http://www.w3.org/1999/xlink">
    <title>E51D6F12-03DF-48B8-9769-172647D69690</title>
    <g id="Page-1" stroke="none" stroke-width="1" fill="none" fill-rule="evenodd" stroke-linecap="square">
        <g id="Cancel-Subscription" transform="translate(-383.000000, -773.000000)" stroke="#F16334">
            <g id="Group-3" transform="translate(247.000000, 87.000000)">
                <g id="Group-11" transform="translate(40.000000, 368.500000)">
                    <g id="Group-8" transform="translate(0.000000, 40.500000)">
                        <g id="Group-19-Copy-5" transform="translate(0.000000, 264.000000)">
                            <g id="Icons/Contact-Support" transform="translate(96.000000, 14.000000)">
                                <path d="M11.8695652,19.5652174 L16.2173913,19.5652174 C17.6582609,19.5652174 18.826087,18.3973913 18.826087,16.9565217 L18.826087,14.3478261" id="Path"></path>
                                <path d="M5.7826087,10 L1.43478261,10 L1.43478261,14.3478261 C1.43478261,15.3086957 2.21304348,16.0869565 3.17391304,16.0869565 L5.7826087,16.0869565 L5.7826087,10 Z" id="Path"></path>
                                <path d="M18.826087,10 L14.4782609,10 L14.4782609,16.0869565 L17.0869565,16.0869565 C18.0478261,16.0869565 18.826087,15.3086957 18.826087,14.3478261 L18.826087,10 Z" id="Path"></path>
                                <path d="M18.826087,10 L18.826087,9.13043478 C18.826087,4.32782609 14.9330435,0.434782609 10.1304348,0.434782609 L10.1304348,0.434782609 C5.32782609,0.434782609 1.43478261,4.32782609 1.43478261,9.13043478 L1.43478261,10" id="Path"></path>
                            </g>
                        </g>
                    </g>
                </g>
            </g>
        </g>
    </g>
</svg>