<svg width="20" height="20" viewBox="0 0 20 20" fill="none" xmlns="http://www.w3.org/2000/svg">
<path d="M8.47258 15.417H0.416748V0.416992H15.4167V8.47449" stroke="#4285F4" stroke-width="0.833333"/>
<path fill-rule="evenodd" clip-rule="evenodd" d="M0.833374 4.58382H15V3.75049H0.833374V4.58382Z" fill="#4285F4"/>
<path fill-rule="evenodd" clip-rule="evenodd" d="M2.50012 7.91683H6.66679V7.0835H2.50012V7.91683Z" fill="#4285F4"/>
<path fill-rule="evenodd" clip-rule="evenodd" d="M2.50012 10.0003H10.0001V9.16699H2.50012V10.0003Z" fill="#4285F4"/>
<path fill-rule="evenodd" clip-rule="evenodd" d="M14.1332 10.1953C13.1252 10.1953 12.1173 10.5799 11.3486 11.3491C9.81024 12.8866 9.81024 15.3803 11.3486 16.9182C12.1173 17.6874 13.1252 18.072 14.1332 18.072C15.1411 18.072 16.149 17.6874 16.9182 16.9182C18.4561 15.3803 18.4561 12.8866 16.9182 11.3491C16.149 10.5799 15.1411 10.1953 14.1332 10.1953ZM14.1332 11.0287C14.9628 11.0287 15.7424 11.3516 16.329 11.9383C16.9153 12.5246 17.2382 13.3041 17.2382 14.1337C17.2382 14.9629 16.9153 15.7425 16.329 16.3291C15.7424 16.9154 14.9628 17.2387 14.1332 17.2387C13.304 17.2387 12.524 16.9154 11.9378 16.3291C11.3511 15.7425 11.0282 14.9629 11.0282 14.1337C11.0282 13.3041 11.3511 12.5246 11.9378 11.9383C12.524 11.3516 13.304 11.0287 14.1332 11.0287Z" fill="#4285F4"/>
<path d="M16.5699 16.5703L19.7029 19.7032" stroke="#4285F4" stroke-width="0.833333"/>
<path fill-rule="evenodd" clip-rule="evenodd" d="M2.29175 1.66699C1.94633 1.66699 1.66675 1.94658 1.66675 2.29199C1.66675 2.63741 1.94633 2.91699 2.29175 2.91699C2.63716 2.91699 2.91675 2.63741 2.91675 2.29199C2.91675 1.94658 2.63716 1.66699 2.29175 1.66699Z" fill="#4285F4"/>
<path fill-rule="evenodd" clip-rule="evenodd" d="M4.37512 1.66699C4.02971 1.66699 3.75012 1.94658 3.75012 2.29199C3.75012 2.63741 4.02971 2.91699 4.37512 2.91699C4.72054 2.91699 5.00012 2.63741 5.00012 2.29199C5.00012 1.94658 4.72054 1.66699 4.37512 1.66699Z" fill="#4285F4"/>
<path fill-rule="evenodd" clip-rule="evenodd" d="M6.45837 1.66699C6.11296 1.66699 5.83337 1.94658 5.83337 2.29199C5.83337 2.63741 6.11296 2.91699 6.45837 2.91699C6.80379 2.91699 7.08337 2.63741 7.08337 2.29199C7.08337 1.94658 6.80379 1.66699 6.45837 1.66699Z" fill="#4285F4"/>
</svg>
