<svg width="64" height="49" viewBox="0 0 64 49" fill="none" xmlns="http://www.w3.org/2000/svg">
<path fill-rule="evenodd" clip-rule="evenodd" d="M62.6667 48H1.33334V1.33333H62.6667V48Z" stroke="#D1D7D9" stroke-width="2"/>
<path d="M1.5 15H62.5" stroke="#D1D7D9" stroke-width="2"/>
<path fill-rule="evenodd" clip-rule="evenodd" d="M28 28H42.6667V26H28V28Z" fill="#D1D7D9"/>
<path fill-rule="evenodd" clip-rule="evenodd" d="M28 34.6667H53.3333V32.6667H28V34.6667Z" fill="#D1D7D9"/>
<path fill-rule="evenodd" clip-rule="evenodd" d="M7.5 7C6.671 7 6 7.671 6 8.5C6 9.329 6.671 10 7.5 10C8.329 10 9 9.329 9 8.5C9 7.671 8.329 7 7.5 7Z" fill="#D1D7D9"/>
<path fill-rule="evenodd" clip-rule="evenodd" d="M13.5 7C12.671 7 12 7.671 12 8.5C12 9.329 12.671 10 13.5 10C14.329 10 15 9.329 15 8.5C15 7.671 14.329 7 13.5 7Z" fill="#D1D7D9"/>
<path fill-rule="evenodd" clip-rule="evenodd" d="M19.5 7C18.671 7 18 7.671 18 8.5C18 9.329 18.671 10 19.5 10C20.329 10 21 9.329 21 8.5C21 7.671 20.329 7 19.5 7Z" fill="#D1D7D9"/>
</svg>
