<svg width="20" height="20" viewBox="0 0 20 20" fill="none" xmlns="http://www.w3.org/2000/svg">
  <path
    d="M16.6666 3.33301H3.33329C2.40829 3.33301 1.67496 4.07467 1.67496 4.99967L1.66663 14.9997C1.66663 15.9247 2.40829 16.6663 3.33329 16.6663H16.6666C17.5916 16.6663 18.3333 15.9247 18.3333 14.9997V4.99967C18.3333 4.07467 17.5916 3.33301 16.6666 3.33301ZM15.8333 14.9997H4.16663C3.70829 14.9997 3.33329 14.6247 3.33329 14.1663V9.99967H16.6666V14.1663C16.6666 14.6247 16.2916 14.9997 15.8333 14.9997ZM16.6666 6.66634H3.33329V5.83301C3.33329 5.37467 3.70829 4.99967 4.16663 4.99967H15.8333C16.2916 4.99967 16.6666 5.37467 16.6666 5.83301V6.66634Z"
    fill="#F16434" />
</svg>
