<svg width="20" height="20" viewBox="0 0 20 20" fill="none" xmlns="http://www.w3.org/2000/svg">
  <path fill-rule="evenodd" clip-rule="evenodd"
    d="M5.5 1.5H17.3496V15.3803C17.3496 17.0372 16.0065 18.3803 14.3496 18.3803H2.5V4.5C2.5 2.84315 3.84315 1.5 5.5 1.5ZM15.6997 14.7302V3.14996H6.14994C5.04537 3.14996 4.14994 4.04539 4.14994 5.14996V16.7302H13.6997C14.8042 16.7302 15.6997 15.8348 15.6997 14.7302Z"
    fill="#F16434" />
  <path
    d="M9.58592 13.8667C8.14598 13.7264 7.51727 12.6646 7.31447 12.0736L8.66314 11.4225C8.87609 11.9434 9.32227 12.4242 10.0422 12.4242C10.6304 12.4242 10.9853 12.1237 10.9853 11.6128C10.9853 10.2706 7.55784 10.4909 7.55784 7.97666C7.55784 6.79466 8.32851 5.94322 9.58592 5.77293V5.15187H10.5594V5.79296C11.7864 6.00332 12.334 6.95493 12.5064 7.4658L11.178 8.0568C11.0056 7.68617 10.7115 7.20536 10.022 7.20536C9.47438 7.20536 9.16002 7.5259 9.16002 7.95663C9.16002 9.25884 12.6179 9.06852 12.6179 11.5026C12.6179 12.7047 11.8574 13.6262 10.5695 13.8366V14.6981H9.58592V13.8667Z"
    fill="#F16434" />
</svg>
