<svg width="17" height="45" viewBox="0 0 17 45" fill="none" xmlns="http://www.w3.org/2000/svg">
<path d="M16.1294 30.0334C15.9648 28.3173 13.9981 27.6143 13.3599 28.2942C11.9247 29.8231 13.8086 39.3283 13.5484 39.2161C4.70349 35.403 -3.21117 3.69235 13.8137 2.23482C14.3057 2.1927 13.5887 1.06646 13.065 0.958603C8.77316 0.0746462 5.4427 2.00468 3.22846 5.48634C-2.08451 13.8404 -0.971036 31.1278 8.7078 39.9094C6.45082 40.429 2.90832 40.2936 2.27041 40.5313C2.11287 41.2566 1.42076 40.8735 1.36801 41.3121C1.31526 41.7506 2.13679 42.6225 3.39447 42.7786C10.1021 43.6112 14.7346 44.5508 16.3819 43.7146C17.575 43.109 16.6233 35.1817 16.1294 30.0334Z" fill="#F16232"/>
</svg>
